<mxfile host="app.diagrams.net" agent="Mozilla/5.0 (Windows NT 10.0; Win64; x64) AppleWebKit/537.36 (KHTML, like Gecko) Chrome/131.0.0.0 Safari/537.36 Edg/131.0.0.0" version="25.0.1">
  <diagram name="Page-1" id="8JmfMtVwKDrOoVaaeSnA">
    <mxGraphModel dx="6586" dy="4108" grid="1" gridSize="10" guides="1" tooltips="1" connect="1" arrows="1" fold="1" page="1" pageScale="1" pageWidth="850" pageHeight="1100" math="0" shadow="0">
      <root>
        <mxCell id="0" />
        <mxCell id="1" parent="0" />
        <mxCell id="OGvGZ4oasRyPuzzbkTMv-3" value="&lt;u style=&quot;font-size: 27px;&quot;&gt;Ekód&lt;/u&gt;" style="rhombus;whiteSpace=wrap;html=1;fontSize=27;" parent="1" vertex="1">
          <mxGeometry x="-280" y="290" width="120" height="110" as="geometry" />
        </mxCell>
        <mxCell id="OGvGZ4oasRyPuzzbkTMv-4" value="Cím" style="ellipse;whiteSpace=wrap;html=1;fontSize=27;" parent="1" vertex="1">
          <mxGeometry x="90" y="480" width="160" height="80" as="geometry" />
        </mxCell>
        <mxCell id="OGvGZ4oasRyPuzzbkTMv-5" value="Név" style="ellipse;whiteSpace=wrap;html=1;fontSize=27;" parent="1" vertex="1">
          <mxGeometry x="-150" y="480" width="160" height="80" as="geometry" />
        </mxCell>
        <mxCell id="OGvGZ4oasRyPuzzbkTMv-6" value="Csillag" style="ellipse;whiteSpace=wrap;html=1;fontSize=27;" parent="1" vertex="1">
          <mxGeometry x="320" y="480" width="160" height="80" as="geometry" />
        </mxCell>
        <mxCell id="OGvGZ4oasRyPuzzbkTMv-7" value="&lt;span style=&quot;color: rgba(0, 0, 0, 0); font-family: monospace; font-size: 0px; text-align: start; text-wrap: nowrap;&quot;&gt;%3CmxGraphModel%3E%3Croot%3E%3CmxCell%20id%3D%220%22%2F%3E%3CmxCell%20id%3D%221%22%20parent%3D%220%22%2F%3E%3CmxCell%20id%3D%222%22%20value%3D%22%22%20style%3D%22rounded%3D0%3BwhiteSpace%3Dwrap%3Bhtml%3D1%3Bdirection%3Dsouth%3B%22%20vertex%3D%221%22%20parent%3D%221%22%3E%3CmxGeometry%20x%3D%22-100%22%20y%3D%22600%22%20width%3D%2260%22%20height%3D%2280%22%20as%3D%22geometry%22%2F%3E%3C%2FmxCell%3E%3C%2Froot%3E%3C%2FmxGraphModel%3E&lt;/span&gt;" style="rounded=0;whiteSpace=wrap;html=1;direction=south;" parent="1" vertex="1">
          <mxGeometry x="-95" y="600" width="50" height="80" as="geometry" />
        </mxCell>
        <mxCell id="OGvGZ4oasRyPuzzbkTMv-8" value="" style="rounded=0;whiteSpace=wrap;html=1;direction=south;" parent="1" vertex="1">
          <mxGeometry x="375" y="600" width="50" height="80" as="geometry" />
        </mxCell>
        <mxCell id="OGvGZ4oasRyPuzzbkTMv-9" value="Utca" style="ellipse;whiteSpace=wrap;html=1;fontSize=27;" parent="1" vertex="1">
          <mxGeometry x="90" y="700" width="160" height="80" as="geometry" />
        </mxCell>
        <mxCell id="OGvGZ4oasRyPuzzbkTMv-10" value="Város" style="ellipse;whiteSpace=wrap;html=1;fontSize=27;" parent="1" vertex="1">
          <mxGeometry x="-80" y="700" width="160" height="80" as="geometry" />
        </mxCell>
        <mxCell id="OGvGZ4oasRyPuzzbkTMv-11" value="Házszám" style="ellipse;whiteSpace=wrap;html=1;fontSize=27;" parent="1" vertex="1">
          <mxGeometry x="265" y="700" width="160" height="80" as="geometry" />
        </mxCell>
        <mxCell id="OGvGZ4oasRyPuzzbkTMv-12" value="&lt;span style=&quot;color: rgba(0, 0, 0, 0); font-family: monospace; font-size: 0px; text-align: start; text-wrap: nowrap;&quot;&gt;%3CmxGraphModel%3E%3Croot%3E%3CmxCell%20id%3D%220%22%2F%3E%3CmxCell%20id%3D%221%22%20parent%3D%220%22%2F%3E%3CmxCell%20id%3D%222%22%20value%3D%22%22%20style%3D%22rounded%3D0%3BwhiteSpace%3Dwrap%3Bhtml%3D1%3Bdirection%3Dsouth%3B%22%20vertex%3D%221%22%20parent%3D%221%22%3E%3CmxGeometry%20x%3D%22-100%22%20y%3D%22600%22%20width%3D%2260%22%20height%3D%2280%22%20as%3D%22geometry%22%2F%3E%3C%2FmxCell%3E%3C%2Froot%3E%3C%2FmxGraphModel%3E&lt;/span&gt;" style="rounded=0;whiteSpace=wrap;html=1;direction=south;" parent="1" vertex="1">
          <mxGeometry x="-25" y="840" width="50" height="80" as="geometry" />
        </mxCell>
        <mxCell id="OGvGZ4oasRyPuzzbkTMv-13" value="&lt;span style=&quot;color: rgba(0, 0, 0, 0); font-family: monospace; font-size: 0px; text-align: start; text-wrap: nowrap;&quot;&gt;%3CmxGraphModel%3E%3Croot%3E%3CmxCell%20id%3D%220%22%2F%3E%3CmxCell%20id%3D%221%22%20parent%3D%220%22%2F%3E%3CmxCell%20id%3D%222%22%20value%3D%22%22%20style%3D%22rounded%3D0%3BwhiteSpace%3Dwrap%3Bhtml%3D1%3Bdirection%3Dsouth%3B%22%20vertex%3D%221%22%20parent%3D%221%22%3E%3CmxGeometry%20x%3D%22-100%22%20y%3D%22600%22%20width%3D%2260%22%20height%3D%2280%22%20as%3D%22geometry%22%2F%3E%3C%2FmxCell%3E%3C%2Froot%3E%3C%2FmxGraphModel%3E&lt;/span&gt;" style="rounded=0;whiteSpace=wrap;html=1;direction=south;" parent="1" vertex="1">
          <mxGeometry x="320" y="840" width="50" height="80" as="geometry" />
        </mxCell>
        <mxCell id="OGvGZ4oasRyPuzzbkTMv-14" value="&lt;span style=&quot;color: rgba(0, 0, 0, 0); font-family: monospace; font-size: 0px; text-align: start; text-wrap: nowrap;&quot;&gt;%3CmxGraphModel%3E%3Croot%3E%3CmxCell%20id%3D%220%22%2F%3E%3CmxCell%20id%3D%221%22%20parent%3D%220%22%2F%3E%3CmxCell%20id%3D%222%22%20value%3D%22%22%20style%3D%22rounded%3D0%3BwhiteSpace%3Dwrap%3Bhtml%3D1%3Bdirection%3Dsouth%3B%22%20vertex%3D%221%22%20parent%3D%221%22%3E%3CmxGeometry%20x%3D%22-100%22%20y%3D%22600%22%20width%3D%2260%22%20height%3D%2280%22%20as%3D%22geometry%22%2F%3E%3C%2FmxCell%3E%3C%2Froot%3E%3C%2FmxGraphModel%3E&lt;/span&gt;" style="rounded=0;whiteSpace=wrap;html=1;direction=south;" parent="1" vertex="1">
          <mxGeometry x="145" y="840" width="50" height="80" as="geometry" />
        </mxCell>
        <mxCell id="OGvGZ4oasRyPuzzbkTMv-15" value="" style="endArrow=none;html=1;rounded=0;entryX=0;entryY=0.5;entryDx=0;entryDy=0;exitX=0.5;exitY=0;exitDx=0;exitDy=0;" parent="1" source="OGvGZ4oasRyPuzzbkTMv-3" target="OGvGZ4oasRyPuzzbkTMv-27" edge="1">
          <mxGeometry width="50" height="50" relative="1" as="geometry">
            <mxPoint x="410" y="600" as="sourcePoint" />
            <mxPoint x="460" y="550" as="targetPoint" />
          </mxGeometry>
        </mxCell>
        <mxCell id="OGvGZ4oasRyPuzzbkTMv-16" value="" style="endArrow=none;html=1;rounded=0;entryX=0.5;entryY=1;entryDx=0;entryDy=0;exitX=0.5;exitY=0;exitDx=0;exitDy=0;" parent="1" source="OGvGZ4oasRyPuzzbkTMv-4" target="OGvGZ4oasRyPuzzbkTMv-2" edge="1">
          <mxGeometry width="50" height="50" relative="1" as="geometry">
            <mxPoint x="410" y="600" as="sourcePoint" />
            <mxPoint x="460" y="550" as="targetPoint" />
          </mxGeometry>
        </mxCell>
        <mxCell id="OGvGZ4oasRyPuzzbkTMv-17" value="" style="endArrow=none;html=1;rounded=0;entryX=0.5;entryY=1;entryDx=0;entryDy=0;exitX=0.5;exitY=0;exitDx=0;exitDy=0;" parent="1" source="OGvGZ4oasRyPuzzbkTMv-6" target="OGvGZ4oasRyPuzzbkTMv-2" edge="1">
          <mxGeometry width="50" height="50" relative="1" as="geometry">
            <mxPoint x="410" y="600" as="sourcePoint" />
            <mxPoint x="460" y="550" as="targetPoint" />
          </mxGeometry>
        </mxCell>
        <mxCell id="OGvGZ4oasRyPuzzbkTMv-18" value="" style="endArrow=none;html=1;rounded=0;entryX=0.5;entryY=1;entryDx=0;entryDy=0;exitX=0.5;exitY=0;exitDx=0;exitDy=0;" parent="1" source="OGvGZ4oasRyPuzzbkTMv-5" target="OGvGZ4oasRyPuzzbkTMv-2" edge="1">
          <mxGeometry width="50" height="50" relative="1" as="geometry">
            <mxPoint x="410" y="600" as="sourcePoint" />
            <mxPoint x="460" y="550" as="targetPoint" />
          </mxGeometry>
        </mxCell>
        <mxCell id="OGvGZ4oasRyPuzzbkTMv-19" value="" style="endArrow=none;html=1;rounded=0;entryX=0.5;entryY=1;entryDx=0;entryDy=0;exitX=0.5;exitY=0;exitDx=0;exitDy=0;" parent="1" source="OGvGZ4oasRyPuzzbkTMv-9" target="OGvGZ4oasRyPuzzbkTMv-4" edge="1">
          <mxGeometry width="50" height="50" relative="1" as="geometry">
            <mxPoint x="410" y="600" as="sourcePoint" />
            <mxPoint x="460" y="550" as="targetPoint" />
          </mxGeometry>
        </mxCell>
        <mxCell id="OGvGZ4oasRyPuzzbkTMv-20" value="" style="endArrow=none;html=1;rounded=0;entryX=0.5;entryY=1;entryDx=0;entryDy=0;exitX=0.5;exitY=0;exitDx=0;exitDy=0;" parent="1" source="OGvGZ4oasRyPuzzbkTMv-10" target="OGvGZ4oasRyPuzzbkTMv-4" edge="1">
          <mxGeometry width="50" height="50" relative="1" as="geometry">
            <mxPoint x="410" y="600" as="sourcePoint" />
            <mxPoint x="460" y="550" as="targetPoint" />
          </mxGeometry>
        </mxCell>
        <mxCell id="OGvGZ4oasRyPuzzbkTMv-21" value="" style="endArrow=none;html=1;rounded=0;entryX=0.5;entryY=1;entryDx=0;entryDy=0;exitX=0.5;exitY=0;exitDx=0;exitDy=0;" parent="1" source="OGvGZ4oasRyPuzzbkTMv-11" target="OGvGZ4oasRyPuzzbkTMv-4" edge="1">
          <mxGeometry width="50" height="50" relative="1" as="geometry">
            <mxPoint x="410" y="600" as="sourcePoint" />
            <mxPoint x="460" y="550" as="targetPoint" />
          </mxGeometry>
        </mxCell>
        <mxCell id="OGvGZ4oasRyPuzzbkTMv-22" value="" style="endArrow=none;html=1;rounded=0;entryX=0.5;entryY=1;entryDx=0;entryDy=0;exitX=0;exitY=0.5;exitDx=0;exitDy=0;" parent="1" source="OGvGZ4oasRyPuzzbkTMv-8" target="OGvGZ4oasRyPuzzbkTMv-6" edge="1">
          <mxGeometry width="50" height="50" relative="1" as="geometry">
            <mxPoint x="410" y="600" as="sourcePoint" />
            <mxPoint x="460" y="550" as="targetPoint" />
          </mxGeometry>
        </mxCell>
        <mxCell id="OGvGZ4oasRyPuzzbkTMv-23" value="" style="endArrow=none;html=1;rounded=0;entryX=0.5;entryY=1;entryDx=0;entryDy=0;exitX=0;exitY=0.5;exitDx=0;exitDy=0;" parent="1" source="OGvGZ4oasRyPuzzbkTMv-7" target="OGvGZ4oasRyPuzzbkTMv-5" edge="1">
          <mxGeometry width="50" height="50" relative="1" as="geometry">
            <mxPoint x="410" y="600" as="sourcePoint" />
            <mxPoint x="460" y="550" as="targetPoint" />
          </mxGeometry>
        </mxCell>
        <mxCell id="OGvGZ4oasRyPuzzbkTMv-24" value="" style="endArrow=none;html=1;rounded=0;entryX=0.5;entryY=1;entryDx=0;entryDy=0;exitX=0;exitY=0.5;exitDx=0;exitDy=0;" parent="1" source="OGvGZ4oasRyPuzzbkTMv-14" target="OGvGZ4oasRyPuzzbkTMv-9" edge="1">
          <mxGeometry width="50" height="50" relative="1" as="geometry">
            <mxPoint x="410" y="600" as="sourcePoint" />
            <mxPoint x="460" y="550" as="targetPoint" />
          </mxGeometry>
        </mxCell>
        <mxCell id="OGvGZ4oasRyPuzzbkTMv-25" value="" style="endArrow=none;html=1;rounded=0;entryX=0.5;entryY=1;entryDx=0;entryDy=0;exitX=0;exitY=0.5;exitDx=0;exitDy=0;" parent="1" source="OGvGZ4oasRyPuzzbkTMv-12" target="OGvGZ4oasRyPuzzbkTMv-10" edge="1">
          <mxGeometry width="50" height="50" relative="1" as="geometry">
            <mxPoint x="410" y="600" as="sourcePoint" />
            <mxPoint x="460" y="550" as="targetPoint" />
          </mxGeometry>
        </mxCell>
        <mxCell id="OGvGZ4oasRyPuzzbkTMv-26" value="" style="endArrow=none;html=1;rounded=0;entryX=0.5;entryY=1;entryDx=0;entryDy=0;exitX=0;exitY=0.5;exitDx=0;exitDy=0;" parent="1" source="OGvGZ4oasRyPuzzbkTMv-13" target="OGvGZ4oasRyPuzzbkTMv-11" edge="1">
          <mxGeometry width="50" height="50" relative="1" as="geometry">
            <mxPoint x="410" y="600" as="sourcePoint" />
            <mxPoint x="460" y="550" as="targetPoint" />
          </mxGeometry>
        </mxCell>
        <mxCell id="OGvGZ4oasRyPuzzbkTMv-28" value="" style="group;fontSize=27;" parent="1" vertex="1" connectable="0">
          <mxGeometry x="90" y="200" width="160" height="80" as="geometry" />
        </mxCell>
        <mxCell id="OGvGZ4oasRyPuzzbkTMv-2" value="Étterem" style="ellipse;whiteSpace=wrap;html=1;fontSize=20;" parent="OGvGZ4oasRyPuzzbkTMv-28" vertex="1">
          <mxGeometry width="160" height="80" as="geometry" />
        </mxCell>
        <mxCell id="OGvGZ4oasRyPuzzbkTMv-27" value="" style="ellipse;whiteSpace=wrap;html=1;fillColor=none;" parent="OGvGZ4oasRyPuzzbkTMv-28" vertex="1">
          <mxGeometry x="10" y="10" width="140" height="60" as="geometry" />
        </mxCell>
        <mxCell id="OGvGZ4oasRyPuzzbkTMv-32" value="Főszakács" style="ellipse;whiteSpace=wrap;html=1;fontSize=27;" parent="1" vertex="1">
          <mxGeometry x="770" y="200" width="160" height="80" as="geometry" />
        </mxCell>
        <mxCell id="OGvGZ4oasRyPuzzbkTMv-33" value="Szakács" style="ellipse;whiteSpace=wrap;html=1;fontSize=27;" parent="1" vertex="1">
          <mxGeometry x="1675" y="200" width="160" height="80" as="geometry" />
        </mxCell>
        <mxCell id="OGvGZ4oasRyPuzzbkTMv-34" value="Gyakornok" style="ellipse;whiteSpace=wrap;html=1;fontSize=27;" parent="1" vertex="1">
          <mxGeometry x="2540" y="200" width="160" height="80" as="geometry" />
        </mxCell>
        <mxCell id="OGvGZ4oasRyPuzzbkTMv-35" value="Vendég" style="ellipse;whiteSpace=wrap;html=1;fontSize=27;" parent="1" vertex="1">
          <mxGeometry x="3450" y="200" width="160" height="80" as="geometry" />
        </mxCell>
        <mxCell id="OGvGZ4oasRyPuzzbkTMv-36" value="&lt;u style=&quot;font-size: 27px;&quot;&gt;Fkód&lt;/u&gt;" style="rhombus;whiteSpace=wrap;html=1;fontSize=27;" parent="1" vertex="1">
          <mxGeometry x="460" y="290" width="120" height="110" as="geometry" />
        </mxCell>
        <mxCell id="OGvGZ4oasRyPuzzbkTMv-37" value="Név" style="ellipse;whiteSpace=wrap;html=1;fontSize=27;" parent="1" vertex="1">
          <mxGeometry x="560" y="480" width="160" height="80" as="geometry" />
        </mxCell>
        <mxCell id="OGvGZ4oasRyPuzzbkTMv-38" value="Életkor" style="ellipse;whiteSpace=wrap;html=1;fontSize=27;" parent="1" vertex="1">
          <mxGeometry x="770" y="480" width="160" height="80" as="geometry" />
        </mxCell>
        <mxCell id="OGvGZ4oasRyPuzzbkTMv-39" value="" style="ellipse;whiteSpace=wrap;html=1;fontSize=27;fillColor=#E6E6E6;" parent="1" vertex="1">
          <mxGeometry x="970" y="480" width="160" height="80" as="geometry" />
        </mxCell>
        <mxCell id="OGvGZ4oasRyPuzzbkTMv-40" value="&lt;span style=&quot;color: rgba(0, 0, 0, 0); font-family: monospace; font-size: 0px; text-align: start; text-wrap: nowrap;&quot;&gt;%3CmxGraphModel%3E%3Croot%3E%3CmxCell%20id%3D%220%22%2F%3E%3CmxCell%20id%3D%221%22%20parent%3D%220%22%2F%3E%3CmxCell%20id%3D%222%22%20value%3D%22%22%20style%3D%22rounded%3D0%3BwhiteSpace%3Dwrap%3Bhtml%3D1%3Bdirection%3Dsouth%3B%22%20vertex%3D%221%22%20parent%3D%221%22%3E%3CmxGeometry%20x%3D%22-100%22%20y%3D%22600%22%20width%3D%2260%22%20height%3D%2280%22%20as%3D%22geometry%22%2F%3E%3C%2FmxCell%3E%3C%2Froot%3E%3C%2FmxGraphModel%3E&lt;/span&gt;" style="rounded=0;whiteSpace=wrap;html=1;direction=south;" parent="1" vertex="1">
          <mxGeometry x="615" y="600" width="50" height="80" as="geometry" />
        </mxCell>
        <mxCell id="OGvGZ4oasRyPuzzbkTMv-41" value="&lt;span style=&quot;color: rgba(0, 0, 0, 0); font-family: monospace; font-size: 0px; text-align: start; text-wrap: nowrap;&quot;&gt;%3CmxGraphModel%3E%3Croot%3E%3CmxCell%20id%3D%220%22%2F%3E%3CmxCell%20id%3D%221%22%20parent%3D%220%22%2F%3E%3CmxCell%20id%3D%222%22%20value%3D%22%22%20style%3D%22rounded%3D0%3BwhiteSpace%3Dwrap%3Bhtml%3D1%3Bdirection%3Dsouth%3B%22%20vertex%3D%221%22%20parent%3D%221%22%3E%3CmxGeometry%20x%3D%22-100%22%20y%3D%22600%22%20width%3D%2260%22%20height%3D%2280%22%20as%3D%22geometry%22%2F%3E%3C%2FmxCell%3E%3C%2Froot%3E%3C%2FmxGraphModel%3E&lt;/span&gt;" style="rounded=0;whiteSpace=wrap;html=1;direction=south;" parent="1" vertex="1">
          <mxGeometry x="825" y="600" width="50" height="80" as="geometry" />
        </mxCell>
        <mxCell id="OGvGZ4oasRyPuzzbkTMv-42" value="" style="endArrow=none;html=1;rounded=0;exitX=0;exitY=0.5;exitDx=0;exitDy=0;entryX=0.5;entryY=1;entryDx=0;entryDy=0;" parent="1" source="OGvGZ4oasRyPuzzbkTMv-40" target="OGvGZ4oasRyPuzzbkTMv-37" edge="1">
          <mxGeometry width="50" height="50" relative="1" as="geometry">
            <mxPoint x="410" y="610" as="sourcePoint" />
            <mxPoint x="670" y="570" as="targetPoint" />
          </mxGeometry>
        </mxCell>
        <mxCell id="OGvGZ4oasRyPuzzbkTMv-43" value="" style="endArrow=none;html=1;rounded=0;entryX=0;entryY=0.5;entryDx=0;entryDy=0;exitX=0.5;exitY=0;exitDx=0;exitDy=0;" parent="1" source="OGvGZ4oasRyPuzzbkTMv-36" target="OGvGZ4oasRyPuzzbkTMv-32" edge="1">
          <mxGeometry width="50" height="50" relative="1" as="geometry">
            <mxPoint x="1110" y="530" as="sourcePoint" />
            <mxPoint x="1160" y="480" as="targetPoint" />
          </mxGeometry>
        </mxCell>
        <mxCell id="OGvGZ4oasRyPuzzbkTMv-44" value="" style="endArrow=none;html=1;rounded=0;entryX=0.5;entryY=1;entryDx=0;entryDy=0;exitX=0;exitY=0.5;exitDx=0;exitDy=0;" parent="1" source="OGvGZ4oasRyPuzzbkTMv-41" target="OGvGZ4oasRyPuzzbkTMv-38" edge="1">
          <mxGeometry width="50" height="50" relative="1" as="geometry">
            <mxPoint x="1110" y="530" as="sourcePoint" />
            <mxPoint x="1160" y="480" as="targetPoint" />
          </mxGeometry>
        </mxCell>
        <mxCell id="OGvGZ4oasRyPuzzbkTMv-45" value="" style="endArrow=none;html=1;rounded=0;entryX=0.5;entryY=1;entryDx=0;entryDy=0;exitX=0.5;exitY=0;exitDx=0;exitDy=0;" parent="1" source="OGvGZ4oasRyPuzzbkTMv-38" target="OGvGZ4oasRyPuzzbkTMv-32" edge="1">
          <mxGeometry width="50" height="50" relative="1" as="geometry">
            <mxPoint x="1110" y="530" as="sourcePoint" />
            <mxPoint x="1160" y="480" as="targetPoint" />
          </mxGeometry>
        </mxCell>
        <mxCell id="OGvGZ4oasRyPuzzbkTMv-46" value="" style="endArrow=none;html=1;rounded=0;entryX=0.5;entryY=1;entryDx=0;entryDy=0;exitX=0.5;exitY=0;exitDx=0;exitDy=0;" parent="1" source="OGvGZ4oasRyPuzzbkTMv-37" target="OGvGZ4oasRyPuzzbkTMv-32" edge="1">
          <mxGeometry width="50" height="50" relative="1" as="geometry">
            <mxPoint x="1110" y="530" as="sourcePoint" />
            <mxPoint x="1160" y="480" as="targetPoint" />
          </mxGeometry>
        </mxCell>
        <mxCell id="OGvGZ4oasRyPuzzbkTMv-50" value="" style="endArrow=none;html=1;rounded=0;entryX=0.5;entryY=1;entryDx=0;entryDy=0;exitX=0.5;exitY=0;exitDx=0;exitDy=0;" parent="1" source="OGvGZ4oasRyPuzzbkTMv-39" target="OGvGZ4oasRyPuzzbkTMv-32" edge="1">
          <mxGeometry width="50" height="50" relative="1" as="geometry">
            <mxPoint x="1110" y="530" as="sourcePoint" />
            <mxPoint x="1160" y="480" as="targetPoint" />
          </mxGeometry>
        </mxCell>
        <mxCell id="OGvGZ4oasRyPuzzbkTMv-51" value="&lt;u style=&quot;font-size: 27px;&quot;&gt;Szkód&lt;/u&gt;" style="rhombus;whiteSpace=wrap;html=1;fontSize=27;" parent="1" vertex="1">
          <mxGeometry x="1330" y="290" width="120" height="110" as="geometry" />
        </mxCell>
        <mxCell id="OGvGZ4oasRyPuzzbkTMv-52" value="" style="endArrow=none;html=1;rounded=0;entryX=0;entryY=0.5;entryDx=0;entryDy=0;exitX=0.5;exitY=0;exitDx=0;exitDy=0;" parent="1" source="OGvGZ4oasRyPuzzbkTMv-51" target="OGvGZ4oasRyPuzzbkTMv-33" edge="1">
          <mxGeometry width="50" height="50" relative="1" as="geometry">
            <mxPoint x="1395" y="280" as="sourcePoint" />
            <mxPoint x="1535" y="240" as="targetPoint" />
          </mxGeometry>
        </mxCell>
        <mxCell id="OGvGZ4oasRyPuzzbkTMv-53" value="Név" style="ellipse;whiteSpace=wrap;html=1;fontSize=27;" parent="1" vertex="1">
          <mxGeometry x="1465" y="480" width="160" height="80" as="geometry" />
        </mxCell>
        <mxCell id="OGvGZ4oasRyPuzzbkTMv-54" value="Részleg" style="ellipse;whiteSpace=wrap;html=1;fontSize=27;" parent="1" vertex="1">
          <mxGeometry x="1675" y="480" width="160" height="80" as="geometry" />
        </mxCell>
        <mxCell id="OGvGZ4oasRyPuzzbkTMv-55" value="" style="ellipse;whiteSpace=wrap;html=1;fontSize=27;fillColor=#E6E6E6;" parent="1" vertex="1">
          <mxGeometry x="1880" y="480" width="160" height="80" as="geometry" />
        </mxCell>
        <mxCell id="OGvGZ4oasRyPuzzbkTMv-56" value="&lt;span style=&quot;color: rgba(0, 0, 0, 0); font-family: monospace; font-size: 0px; text-align: start; text-wrap: nowrap;&quot;&gt;%3CmxGraphModel%3E%3Croot%3E%3CmxCell%20id%3D%220%22%2F%3E%3CmxCell%20id%3D%221%22%20parent%3D%220%22%2F%3E%3CmxCell%20id%3D%222%22%20value%3D%22%22%20style%3D%22rounded%3D0%3BwhiteSpace%3Dwrap%3Bhtml%3D1%3Bdirection%3Dsouth%3B%22%20vertex%3D%221%22%20parent%3D%221%22%3E%3CmxGeometry%20x%3D%22-100%22%20y%3D%22600%22%20width%3D%2260%22%20height%3D%2280%22%20as%3D%22geometry%22%2F%3E%3C%2FmxCell%3E%3C%2Froot%3E%3C%2FmxGraphModel%3E&lt;/span&gt;" style="rounded=0;whiteSpace=wrap;html=1;direction=south;" parent="1" vertex="1">
          <mxGeometry x="1520" y="600" width="50" height="80" as="geometry" />
        </mxCell>
        <mxCell id="OGvGZ4oasRyPuzzbkTMv-57" value="&lt;span style=&quot;color: rgba(0, 0, 0, 0); font-family: monospace; font-size: 0px; text-align: start; text-wrap: nowrap;&quot;&gt;%3CmxGraphModel%3E%3Croot%3E%3CmxCell%20id%3D%220%22%2F%3E%3CmxCell%20id%3D%221%22%20parent%3D%220%22%2F%3E%3CmxCell%20id%3D%222%22%20value%3D%22%22%20style%3D%22rounded%3D0%3BwhiteSpace%3Dwrap%3Bhtml%3D1%3Bdirection%3Dsouth%3B%22%20vertex%3D%221%22%20parent%3D%221%22%3E%3CmxGeometry%20x%3D%22-100%22%20y%3D%22600%22%20width%3D%2260%22%20height%3D%2280%22%20as%3D%22geometry%22%2F%3E%3C%2FmxCell%3E%3C%2Froot%3E%3C%2FmxGraphModel%3E&lt;/span&gt;" style="rounded=0;whiteSpace=wrap;html=1;direction=south;" parent="1" vertex="1">
          <mxGeometry x="1730" y="600" width="50" height="80" as="geometry" />
        </mxCell>
        <mxCell id="OGvGZ4oasRyPuzzbkTMv-58" value="" style="endArrow=none;html=1;rounded=0;entryX=0;entryY=0.5;entryDx=0;entryDy=0;exitX=0.5;exitY=1;exitDx=0;exitDy=0;" parent="1" source="OGvGZ4oasRyPuzzbkTMv-53" target="OGvGZ4oasRyPuzzbkTMv-56" edge="1">
          <mxGeometry width="50" height="50" relative="1" as="geometry">
            <mxPoint x="1050" y="610" as="sourcePoint" />
            <mxPoint x="1050" y="570" as="targetPoint" />
          </mxGeometry>
        </mxCell>
        <mxCell id="OGvGZ4oasRyPuzzbkTMv-59" value="" style="endArrow=none;html=1;rounded=0;entryX=0.5;entryY=1;entryDx=0;entryDy=0;exitX=0;exitY=0.5;exitDx=0;exitDy=0;" parent="1" source="OGvGZ4oasRyPuzzbkTMv-57" target="OGvGZ4oasRyPuzzbkTMv-54" edge="1">
          <mxGeometry width="50" height="50" relative="1" as="geometry">
            <mxPoint x="1050" y="490" as="sourcePoint" />
            <mxPoint x="1050" y="290" as="targetPoint" />
          </mxGeometry>
        </mxCell>
        <mxCell id="OGvGZ4oasRyPuzzbkTMv-60" value="" style="endArrow=none;html=1;rounded=0;entryX=0.5;entryY=1;entryDx=0;entryDy=0;exitX=0.5;exitY=0;exitDx=0;exitDy=0;" parent="1" source="OGvGZ4oasRyPuzzbkTMv-54" target="OGvGZ4oasRyPuzzbkTMv-33" edge="1">
          <mxGeometry width="50" height="50" relative="1" as="geometry">
            <mxPoint x="1610" y="390" as="sourcePoint" />
            <mxPoint x="1660" y="340" as="targetPoint" />
          </mxGeometry>
        </mxCell>
        <mxCell id="OGvGZ4oasRyPuzzbkTMv-61" value="" style="endArrow=none;html=1;rounded=0;entryX=0.5;entryY=1;entryDx=0;entryDy=0;exitX=0.5;exitY=0;exitDx=0;exitDy=0;" parent="1" source="OGvGZ4oasRyPuzzbkTMv-53" target="OGvGZ4oasRyPuzzbkTMv-33" edge="1">
          <mxGeometry width="50" height="50" relative="1" as="geometry">
            <mxPoint x="1710" y="490" as="sourcePoint" />
            <mxPoint x="1710" y="290" as="targetPoint" />
          </mxGeometry>
        </mxCell>
        <mxCell id="OGvGZ4oasRyPuzzbkTMv-62" value="" style="endArrow=none;html=1;rounded=0;entryX=0.5;entryY=1;entryDx=0;entryDy=0;exitX=0.5;exitY=0;exitDx=0;exitDy=0;" parent="1" source="OGvGZ4oasRyPuzzbkTMv-55" target="OGvGZ4oasRyPuzzbkTMv-33" edge="1">
          <mxGeometry width="50" height="50" relative="1" as="geometry">
            <mxPoint x="1500" y="490" as="sourcePoint" />
            <mxPoint x="1710" y="290" as="targetPoint" />
          </mxGeometry>
        </mxCell>
        <mxCell id="OGvGZ4oasRyPuzzbkTMv-63" value="&lt;u style=&quot;font-size: 27px;&quot;&gt;Gykód&lt;/u&gt;" style="rhombus;whiteSpace=wrap;html=1;fontSize=27;" parent="1" vertex="1">
          <mxGeometry x="2240" y="290" width="120" height="110" as="geometry" />
        </mxCell>
        <mxCell id="OGvGZ4oasRyPuzzbkTMv-64" value="" style="endArrow=none;html=1;rounded=0;entryX=0;entryY=0.5;entryDx=0;entryDy=0;exitX=0.5;exitY=0;exitDx=0;exitDy=0;" parent="1" source="OGvGZ4oasRyPuzzbkTMv-63" target="OGvGZ4oasRyPuzzbkTMv-34" edge="1">
          <mxGeometry width="50" height="50" relative="1" as="geometry">
            <mxPoint x="2330" y="280" as="sourcePoint" />
            <mxPoint x="1900" y="260" as="targetPoint" />
          </mxGeometry>
        </mxCell>
        <mxCell id="OGvGZ4oasRyPuzzbkTMv-65" value="Név" style="ellipse;whiteSpace=wrap;html=1;fontSize=27;strokeColor=default;" parent="1" vertex="1">
          <mxGeometry x="2320" y="490" width="160" height="80" as="geometry" />
        </mxCell>
        <mxCell id="OGvGZ4oasRyPuzzbkTMv-66" value="Gyakorlat" style="ellipse;whiteSpace=wrap;html=1;fontSize=27;strokeColor=default;" parent="1" vertex="1">
          <mxGeometry x="2540" y="490" width="160" height="80" as="geometry" />
        </mxCell>
        <mxCell id="OGvGZ4oasRyPuzzbkTMv-67" value="" style="ellipse;whiteSpace=wrap;html=1;fontSize=27;strokeColor=default;" parent="1" vertex="1">
          <mxGeometry x="2760" y="490" width="160" height="80" as="geometry" />
        </mxCell>
        <mxCell id="OGvGZ4oasRyPuzzbkTMv-69" value="" style="endArrow=none;html=1;rounded=0;entryX=0.5;entryY=1;entryDx=0;entryDy=0;exitX=0.5;exitY=0;exitDx=0;exitDy=0;" parent="1" source="OGvGZ4oasRyPuzzbkTMv-65" target="OGvGZ4oasRyPuzzbkTMv-34" edge="1">
          <mxGeometry width="50" height="50" relative="1" as="geometry">
            <mxPoint x="2090" y="360" as="sourcePoint" />
            <mxPoint x="2140" y="310" as="targetPoint" />
          </mxGeometry>
        </mxCell>
        <mxCell id="OGvGZ4oasRyPuzzbkTMv-70" value="" style="endArrow=none;html=1;rounded=0;entryX=0.5;entryY=0;entryDx=0;entryDy=0;exitX=0.5;exitY=1;exitDx=0;exitDy=0;" parent="1" source="OGvGZ4oasRyPuzzbkTMv-34" target="OGvGZ4oasRyPuzzbkTMv-66" edge="1">
          <mxGeometry width="50" height="50" relative="1" as="geometry">
            <mxPoint x="2720" y="340" as="sourcePoint" />
            <mxPoint x="2630" y="300" as="targetPoint" />
          </mxGeometry>
        </mxCell>
        <mxCell id="OGvGZ4oasRyPuzzbkTMv-71" value="" style="endArrow=none;html=1;rounded=0;entryX=0.5;entryY=0;entryDx=0;entryDy=0;exitX=0.5;exitY=1;exitDx=0;exitDy=0;" parent="1" source="OGvGZ4oasRyPuzzbkTMv-34" target="OGvGZ4oasRyPuzzbkTMv-67" edge="1">
          <mxGeometry width="50" height="50" relative="1" as="geometry">
            <mxPoint x="2790" y="320" as="sourcePoint" />
            <mxPoint x="2790" y="520" as="targetPoint" />
          </mxGeometry>
        </mxCell>
        <mxCell id="OGvGZ4oasRyPuzzbkTMv-72" value="Rendelés" style="ellipse;whiteSpace=wrap;html=1;fontSize=27;" parent="1" vertex="1">
          <mxGeometry x="4350" y="210" width="160" height="80" as="geometry" />
        </mxCell>
        <mxCell id="OGvGZ4oasRyPuzzbkTMv-74" value="" style="endArrow=none;html=1;rounded=0;entryX=1;entryY=0.5;entryDx=0;entryDy=0;exitX=0.5;exitY=0;exitDx=0;exitDy=0;" parent="1" source="OGvGZ4oasRyPuzzbkTMv-73" target="OGvGZ4oasRyPuzzbkTMv-32" edge="1">
          <mxGeometry width="50" height="50" relative="1" as="geometry">
            <mxPoint x="530" y="290" as="sourcePoint" />
            <mxPoint x="780" y="250" as="targetPoint" />
          </mxGeometry>
        </mxCell>
        <mxCell id="OGvGZ4oasRyPuzzbkTMv-75" value="" style="endArrow=none;dashed=1;html=1;dashPattern=1 3;strokeWidth=2;rounded=0;entryX=0.5;entryY=1;entryDx=0;entryDy=0;" parent="1" target="OGvGZ4oasRyPuzzbkTMv-73" edge="1">
          <mxGeometry width="50" height="50" relative="1" as="geometry">
            <mxPoint x="1210" y="1000" as="sourcePoint" />
            <mxPoint x="700" y="640" as="targetPoint" />
          </mxGeometry>
        </mxCell>
        <mxCell id="OGvGZ4oasRyPuzzbkTMv-77" value="" style="endArrow=none;dashed=1;html=1;dashPattern=1 3;strokeWidth=2;rounded=0;" parent="1" edge="1">
          <mxGeometry width="50" height="50" relative="1" as="geometry">
            <mxPoint x="-360" y="1000" as="sourcePoint" />
            <mxPoint x="1210" y="1000" as="targetPoint" />
          </mxGeometry>
        </mxCell>
        <mxCell id="OGvGZ4oasRyPuzzbkTMv-81" value="" style="endArrow=none;dashed=1;html=1;dashPattern=1 3;strokeWidth=2;rounded=0;exitX=0;exitY=1;exitDx=0;exitDy=0;" parent="1" source="OGvGZ4oasRyPuzzbkTMv-3" edge="1">
          <mxGeometry width="50" height="50" relative="1" as="geometry">
            <mxPoint x="615" y="750" as="sourcePoint" />
            <mxPoint x="-360" y="373" as="targetPoint" />
          </mxGeometry>
        </mxCell>
        <mxCell id="OGvGZ4oasRyPuzzbkTMv-83" value="" style="group" parent="1" vertex="1" connectable="0">
          <mxGeometry x="1150" y="290" width="120" height="110" as="geometry" />
        </mxCell>
        <mxCell id="OGvGZ4oasRyPuzzbkTMv-73" value="&lt;span style=&quot;font-size: 27px;&quot;&gt;E_F&lt;/span&gt;" style="rhombus;whiteSpace=wrap;html=1;fontSize=27;" parent="OGvGZ4oasRyPuzzbkTMv-83" vertex="1">
          <mxGeometry width="120" height="110" as="geometry" />
        </mxCell>
        <mxCell id="OGvGZ4oasRyPuzzbkTMv-82" value="" style="endArrow=none;dashed=1;html=1;dashPattern=1 3;strokeWidth=2;rounded=0;" parent="OGvGZ4oasRyPuzzbkTMv-83" edge="1">
          <mxGeometry width="50" height="50" relative="1" as="geometry">
            <mxPoint x="30" y="70" as="sourcePoint" />
            <mxPoint x="100" y="70" as="targetPoint" />
          </mxGeometry>
        </mxCell>
        <mxCell id="OGvGZ4oasRyPuzzbkTMv-84" value="" style="endArrow=none;dashed=1;html=1;dashPattern=1 3;strokeWidth=2;rounded=0;" parent="1" edge="1">
          <mxGeometry width="50" height="50" relative="1" as="geometry">
            <mxPoint x="-363.3333333333333" y="1000" as="sourcePoint" />
            <mxPoint x="-363" y="370" as="targetPoint" />
          </mxGeometry>
        </mxCell>
        <mxCell id="OGvGZ4oasRyPuzzbkTMv-89" value="Végzettség" style="ellipse;whiteSpace=wrap;html=1;fontSize=27;fillColor=#E6E6E6;" parent="1" vertex="1">
          <mxGeometry x="980" y="490" width="140" height="60" as="geometry" />
        </mxCell>
        <mxCell id="OGvGZ4oasRyPuzzbkTMv-90" value="&lt;span style=&quot;color: rgba(0, 0, 0, 0); font-family: monospace; font-size: 0px; text-align: start; text-wrap: nowrap;&quot;&gt;%3CmxGraphModel%3E%3Croot%3E%3CmxCell%20id%3D%220%22%2F%3E%3CmxCell%20id%3D%221%22%20parent%3D%220%22%2F%3E%3CmxCell%20id%3D%222%22%20value%3D%22%22%20style%3D%22rounded%3D0%3BwhiteSpace%3Dwrap%3Bhtml%3D1%3Bdirection%3Dsouth%3B%22%20vertex%3D%221%22%20parent%3D%221%22%3E%3CmxGeometry%20x%3D%22-100%22%20y%3D%22600%22%20width%3D%2260%22%20height%3D%2280%22%20as%3D%22geometry%22%2F%3E%3C%2FmxCell%3E%3C%2Froot%3E%3C%2FmxGraphModel%3E&lt;/span&gt;" style="rounded=0;whiteSpace=wrap;html=1;direction=south;" parent="1" vertex="1">
          <mxGeometry x="1025" y="600" width="50" height="80" as="geometry" />
        </mxCell>
        <mxCell id="OGvGZ4oasRyPuzzbkTMv-91" value="" style="endArrow=none;html=1;rounded=0;entryX=0.5;entryY=1;entryDx=0;entryDy=0;exitX=0;exitY=0.5;exitDx=0;exitDy=0;" parent="1" source="OGvGZ4oasRyPuzzbkTMv-90" target="OGvGZ4oasRyPuzzbkTMv-39" edge="1">
          <mxGeometry width="50" height="50" relative="1" as="geometry">
            <mxPoint x="860" y="490" as="sourcePoint" />
            <mxPoint x="860" y="290" as="targetPoint" />
          </mxGeometry>
        </mxCell>
        <mxCell id="OGvGZ4oasRyPuzzbkTMv-92" value="" style="group" parent="1" vertex="1" connectable="0">
          <mxGeometry x="2060" y="290" width="120" height="110" as="geometry" />
        </mxCell>
        <mxCell id="OGvGZ4oasRyPuzzbkTMv-93" value="&lt;span style=&quot;font-size: 27px;&quot;&gt;E_SZ&lt;/span&gt;" style="rhombus;whiteSpace=wrap;html=1;fontSize=27;" parent="OGvGZ4oasRyPuzzbkTMv-92" vertex="1">
          <mxGeometry width="120" height="110" as="geometry" />
        </mxCell>
        <mxCell id="OGvGZ4oasRyPuzzbkTMv-94" value="" style="endArrow=none;dashed=1;html=1;dashPattern=1 3;strokeWidth=2;rounded=0;" parent="OGvGZ4oasRyPuzzbkTMv-92" edge="1">
          <mxGeometry width="50" height="50" relative="1" as="geometry">
            <mxPoint x="30" y="70" as="sourcePoint" />
            <mxPoint x="100" y="70" as="targetPoint" />
          </mxGeometry>
        </mxCell>
        <mxCell id="OGvGZ4oasRyPuzzbkTMv-95" value="" style="endArrow=none;html=1;rounded=0;entryX=1;entryY=0.5;entryDx=0;entryDy=0;exitX=0.5;exitY=0;exitDx=0;exitDy=0;" parent="1" source="OGvGZ4oasRyPuzzbkTMv-93" target="OGvGZ4oasRyPuzzbkTMv-33" edge="1">
          <mxGeometry width="50" height="50" relative="1" as="geometry">
            <mxPoint x="1400" y="290" as="sourcePoint" />
            <mxPoint x="1685" y="250" as="targetPoint" />
          </mxGeometry>
        </mxCell>
        <mxCell id="OGvGZ4oasRyPuzzbkTMv-96" value="Végzettség" style="ellipse;whiteSpace=wrap;html=1;fontSize=27;fillColor=#E6E6E6;" parent="1" vertex="1">
          <mxGeometry x="1890" y="490" width="140" height="60" as="geometry" />
        </mxCell>
        <mxCell id="OGvGZ4oasRyPuzzbkTMv-97" value="&lt;span style=&quot;color: rgba(0, 0, 0, 0); font-family: monospace; font-size: 0px; text-align: start; text-wrap: nowrap;&quot;&gt;%3CmxGraphModel%3E%3Croot%3E%3CmxCell%20id%3D%220%22%2F%3E%3CmxCell%20id%3D%221%22%20parent%3D%220%22%2F%3E%3CmxCell%20id%3D%222%22%20value%3D%22%22%20style%3D%22rounded%3D0%3BwhiteSpace%3Dwrap%3Bhtml%3D1%3Bdirection%3Dsouth%3B%22%20vertex%3D%221%22%20parent%3D%221%22%3E%3CmxGeometry%20x%3D%22-100%22%20y%3D%22600%22%20width%3D%2260%22%20height%3D%2280%22%20as%3D%22geometry%22%2F%3E%3C%2FmxCell%3E%3C%2Froot%3E%3C%2FmxGraphModel%3E&lt;/span&gt;" style="rounded=0;whiteSpace=wrap;html=1;direction=south;" parent="1" vertex="1">
          <mxGeometry x="1935" y="600" width="50" height="80" as="geometry" />
        </mxCell>
        <mxCell id="OGvGZ4oasRyPuzzbkTMv-98" value="" style="endArrow=none;html=1;rounded=0;entryX=0.5;entryY=1;entryDx=0;entryDy=0;exitX=0;exitY=0.5;exitDx=0;exitDy=0;" parent="1" source="OGvGZ4oasRyPuzzbkTMv-97" target="OGvGZ4oasRyPuzzbkTMv-55" edge="1">
          <mxGeometry width="50" height="50" relative="1" as="geometry">
            <mxPoint x="1765" y="490" as="sourcePoint" />
            <mxPoint x="1765" y="290" as="targetPoint" />
          </mxGeometry>
        </mxCell>
        <mxCell id="OGvGZ4oasRyPuzzbkTMv-99" value="" style="endArrow=none;dashed=1;html=1;dashPattern=1 3;strokeWidth=2;rounded=0;entryX=0.5;entryY=1;entryDx=0;entryDy=0;" parent="1" target="OGvGZ4oasRyPuzzbkTMv-93" edge="1">
          <mxGeometry width="50" height="50" relative="1" as="geometry">
            <mxPoint x="2120" y="1040" as="sourcePoint" />
            <mxPoint x="2125" y="440" as="targetPoint" />
          </mxGeometry>
        </mxCell>
        <mxCell id="OGvGZ4oasRyPuzzbkTMv-100" value="" style="endArrow=none;dashed=1;html=1;dashPattern=1 3;strokeWidth=2;rounded=0;" parent="1" edge="1">
          <mxGeometry width="50" height="50" relative="1" as="geometry">
            <mxPoint x="-400" y="1040" as="sourcePoint" />
            <mxPoint x="2120" y="1040" as="targetPoint" />
          </mxGeometry>
        </mxCell>
        <mxCell id="OGvGZ4oasRyPuzzbkTMv-101" value="" style="endArrow=none;dashed=1;html=1;dashPattern=1 3;strokeWidth=2;rounded=0;" parent="1" edge="1">
          <mxGeometry width="50" height="50" relative="1" as="geometry">
            <mxPoint x="-400" y="350" as="sourcePoint" />
            <mxPoint x="-400" y="1040" as="targetPoint" />
          </mxGeometry>
        </mxCell>
        <mxCell id="OGvGZ4oasRyPuzzbkTMv-102" value="" style="endArrow=none;dashed=1;html=1;dashPattern=1 3;strokeWidth=2;rounded=0;entryX=0;entryY=0.5;entryDx=0;entryDy=0;" parent="1" target="OGvGZ4oasRyPuzzbkTMv-3" edge="1">
          <mxGeometry width="50" height="50" relative="1" as="geometry">
            <mxPoint x="-400" y="345" as="sourcePoint" />
            <mxPoint x="70" y="630" as="targetPoint" />
          </mxGeometry>
        </mxCell>
        <mxCell id="OGvGZ4oasRyPuzzbkTMv-104" value="" style="group" parent="1" vertex="1" connectable="0">
          <mxGeometry x="2940" y="290" width="120" height="110" as="geometry" />
        </mxCell>
        <mxCell id="OGvGZ4oasRyPuzzbkTMv-105" value="&lt;span style=&quot;font-size: 27px;&quot;&gt;E_Gy&lt;/span&gt;" style="rhombus;whiteSpace=wrap;html=1;fontSize=27;" parent="OGvGZ4oasRyPuzzbkTMv-104" vertex="1">
          <mxGeometry width="120" height="110" as="geometry" />
        </mxCell>
        <mxCell id="OGvGZ4oasRyPuzzbkTMv-106" value="" style="endArrow=none;dashed=1;html=1;dashPattern=1 3;strokeWidth=2;rounded=0;" parent="OGvGZ4oasRyPuzzbkTMv-104" edge="1">
          <mxGeometry width="50" height="50" relative="1" as="geometry">
            <mxPoint x="30" y="70" as="sourcePoint" />
            <mxPoint x="100" y="70" as="targetPoint" />
          </mxGeometry>
        </mxCell>
        <mxCell id="OGvGZ4oasRyPuzzbkTMv-107" value="" style="endArrow=none;html=1;rounded=0;entryX=1;entryY=0.5;entryDx=0;entryDy=0;exitX=0.5;exitY=0;exitDx=0;exitDy=0;" parent="1" source="OGvGZ4oasRyPuzzbkTMv-105" target="OGvGZ4oasRyPuzzbkTMv-34" edge="1">
          <mxGeometry width="50" height="50" relative="1" as="geometry">
            <mxPoint x="2310" y="300" as="sourcePoint" />
            <mxPoint x="2550" y="260" as="targetPoint" />
          </mxGeometry>
        </mxCell>
        <mxCell id="OGvGZ4oasRyPuzzbkTMv-108" value="Kezdete" style="ellipse;whiteSpace=wrap;html=1;fontSize=27;strokeColor=default;" parent="1" vertex="1">
          <mxGeometry x="2440" y="680" width="160" height="80" as="geometry" />
        </mxCell>
        <mxCell id="OGvGZ4oasRyPuzzbkTMv-109" value="Idotartama" style="ellipse;whiteSpace=wrap;html=1;fontSize=27;strokeColor=default;" parent="1" vertex="1">
          <mxGeometry x="2640" y="680" width="160" height="80" as="geometry" />
        </mxCell>
        <mxCell id="OGvGZ4oasRyPuzzbkTMv-110" value="" style="endArrow=none;html=1;rounded=0;entryX=0.5;entryY=0;entryDx=0;entryDy=0;exitX=0.5;exitY=1;exitDx=0;exitDy=0;" parent="1" source="OGvGZ4oasRyPuzzbkTMv-66" target="OGvGZ4oasRyPuzzbkTMv-108" edge="1">
          <mxGeometry width="50" height="50" relative="1" as="geometry">
            <mxPoint x="2619.17" y="650" as="sourcePoint" />
            <mxPoint x="2619.17" y="850" as="targetPoint" />
          </mxGeometry>
        </mxCell>
        <mxCell id="OGvGZ4oasRyPuzzbkTMv-111" value="" style="endArrow=none;html=1;rounded=0;entryX=0.5;entryY=0;entryDx=0;entryDy=0;exitX=0.5;exitY=1;exitDx=0;exitDy=0;" parent="1" source="OGvGZ4oasRyPuzzbkTMv-66" target="OGvGZ4oasRyPuzzbkTMv-109" edge="1">
          <mxGeometry width="50" height="50" relative="1" as="geometry">
            <mxPoint x="2800" y="600" as="sourcePoint" />
            <mxPoint x="2700" y="710" as="targetPoint" />
          </mxGeometry>
        </mxCell>
        <mxCell id="OGvGZ4oasRyPuzzbkTMv-112" value="Műszak" style="ellipse;whiteSpace=wrap;html=1;fontSize=27;fillColor=#E6E6E6;" parent="1" vertex="1">
          <mxGeometry x="2770" y="500" width="140" height="60" as="geometry" />
        </mxCell>
        <mxCell id="OGvGZ4oasRyPuzzbkTMv-113" value="&lt;span style=&quot;color: rgba(0, 0, 0, 0); font-family: monospace; font-size: 0px; text-align: start; text-wrap: nowrap;&quot;&gt;%3CmxGraphModel%3E%3Croot%3E%3CmxCell%20id%3D%220%22%2F%3E%3CmxCell%20id%3D%221%22%20parent%3D%220%22%2F%3E%3CmxCell%20id%3D%222%22%20value%3D%22%22%20style%3D%22rounded%3D0%3BwhiteSpace%3Dwrap%3Bhtml%3D1%3Bdirection%3Dsouth%3B%22%20vertex%3D%221%22%20parent%3D%221%22%3E%3CmxGeometry%20x%3D%22-100%22%20y%3D%22600%22%20width%3D%2260%22%20height%3D%2280%22%20as%3D%22geometry%22%2F%3E%3C%2FmxCell%3E%3C%2Froot%3E%3C%2FmxGraphModel%3E&lt;/span&gt;" style="rounded=0;whiteSpace=wrap;html=1;direction=south;" parent="1" vertex="1">
          <mxGeometry x="2375" y="600" width="50" height="80" as="geometry" />
        </mxCell>
        <mxCell id="OGvGZ4oasRyPuzzbkTMv-114" value="&lt;span style=&quot;color: rgba(0, 0, 0, 0); font-family: monospace; font-size: 0px; text-align: start; text-wrap: nowrap;&quot;&gt;%3CmxGraphModel%3E%3Croot%3E%3CmxCell%20id%3D%220%22%2F%3E%3CmxCell%20id%3D%221%22%20parent%3D%220%22%2F%3E%3CmxCell%20id%3D%222%22%20value%3D%22%22%20style%3D%22rounded%3D0%3BwhiteSpace%3Dwrap%3Bhtml%3D1%3Bdirection%3Dsouth%3B%22%20vertex%3D%221%22%20parent%3D%221%22%3E%3CmxGeometry%20x%3D%22-100%22%20y%3D%22600%22%20width%3D%2260%22%20height%3D%2280%22%20as%3D%22geometry%22%2F%3E%3C%2FmxCell%3E%3C%2Froot%3E%3C%2FmxGraphModel%3E&lt;/span&gt;" style="rounded=0;whiteSpace=wrap;html=1;direction=south;" parent="1" vertex="1">
          <mxGeometry x="2815" y="600" width="50" height="80" as="geometry" />
        </mxCell>
        <mxCell id="OGvGZ4oasRyPuzzbkTMv-115" value="&lt;span style=&quot;color: rgba(0, 0, 0, 0); font-family: monospace; font-size: 0px; text-align: start; text-wrap: nowrap;&quot;&gt;%3CmxGraphModel%3E%3Croot%3E%3CmxCell%20id%3D%220%22%2F%3E%3CmxCell%20id%3D%221%22%20parent%3D%220%22%2F%3E%3CmxCell%20id%3D%222%22%20value%3D%22%22%20style%3D%22rounded%3D0%3BwhiteSpace%3Dwrap%3Bhtml%3D1%3Bdirection%3Dsouth%3B%22%20vertex%3D%221%22%20parent%3D%221%22%3E%3CmxGeometry%20x%3D%22-100%22%20y%3D%22600%22%20width%3D%2260%22%20height%3D%2280%22%20as%3D%22geometry%22%2F%3E%3C%2FmxCell%3E%3C%2Froot%3E%3C%2FmxGraphModel%3E&lt;/span&gt;" style="rounded=0;whiteSpace=wrap;html=1;direction=south;" parent="1" vertex="1">
          <mxGeometry x="2495" y="800" width="50" height="80" as="geometry" />
        </mxCell>
        <mxCell id="OGvGZ4oasRyPuzzbkTMv-116" value="&lt;span style=&quot;color: rgba(0, 0, 0, 0); font-family: monospace; font-size: 0px; text-align: start; text-wrap: nowrap;&quot;&gt;%3CmxGraphModel%3E%3Croot%3E%3CmxCell%20id%3D%220%22%2F%3E%3CmxCell%20id%3D%221%22%20parent%3D%220%22%2F%3E%3CmxCell%20id%3D%222%22%20value%3D%22%22%20style%3D%22rounded%3D0%3BwhiteSpace%3Dwrap%3Bhtml%3D1%3Bdirection%3Dsouth%3B%22%20vertex%3D%221%22%20parent%3D%221%22%3E%3CmxGeometry%20x%3D%22-100%22%20y%3D%22600%22%20width%3D%2260%22%20height%3D%2280%22%20as%3D%22geometry%22%2F%3E%3C%2FmxCell%3E%3C%2Froot%3E%3C%2FmxGraphModel%3E&lt;/span&gt;" style="rounded=0;whiteSpace=wrap;html=1;direction=south;" parent="1" vertex="1">
          <mxGeometry x="2695" y="800" width="50" height="80" as="geometry" />
        </mxCell>
        <mxCell id="OGvGZ4oasRyPuzzbkTMv-117" value="" style="endArrow=none;html=1;rounded=0;entryX=0.5;entryY=1;entryDx=0;entryDy=0;exitX=0;exitY=0.5;exitDx=0;exitDy=0;" parent="1" source="OGvGZ4oasRyPuzzbkTMv-113" target="OGvGZ4oasRyPuzzbkTMv-65" edge="1">
          <mxGeometry width="50" height="50" relative="1" as="geometry">
            <mxPoint x="2410" y="500" as="sourcePoint" />
            <mxPoint x="2630" y="300" as="targetPoint" />
          </mxGeometry>
        </mxCell>
        <mxCell id="OGvGZ4oasRyPuzzbkTMv-118" value="" style="endArrow=none;html=1;rounded=0;entryX=0;entryY=0.5;entryDx=0;entryDy=0;exitX=0.5;exitY=1;exitDx=0;exitDy=0;" parent="1" source="OGvGZ4oasRyPuzzbkTMv-108" target="OGvGZ4oasRyPuzzbkTMv-115" edge="1">
          <mxGeometry width="50" height="50" relative="1" as="geometry">
            <mxPoint x="2630" y="580" as="sourcePoint" />
            <mxPoint x="2530" y="690" as="targetPoint" />
          </mxGeometry>
        </mxCell>
        <mxCell id="OGvGZ4oasRyPuzzbkTMv-119" value="" style="endArrow=none;html=1;rounded=0;entryX=0.5;entryY=1;entryDx=0;entryDy=0;exitX=0;exitY=0.5;exitDx=0;exitDy=0;" parent="1" source="OGvGZ4oasRyPuzzbkTMv-114" target="OGvGZ4oasRyPuzzbkTMv-67" edge="1">
          <mxGeometry width="50" height="50" relative="1" as="geometry">
            <mxPoint x="2630" y="580" as="sourcePoint" />
            <mxPoint x="2730" y="690" as="targetPoint" />
          </mxGeometry>
        </mxCell>
        <mxCell id="OGvGZ4oasRyPuzzbkTMv-120" value="" style="endArrow=none;html=1;rounded=0;entryX=0;entryY=0.5;entryDx=0;entryDy=0;exitX=0.5;exitY=1;exitDx=0;exitDy=0;" parent="1" source="OGvGZ4oasRyPuzzbkTMv-109" target="OGvGZ4oasRyPuzzbkTMv-116" edge="1">
          <mxGeometry width="50" height="50" relative="1" as="geometry">
            <mxPoint x="2680" y="825" as="sourcePoint" />
            <mxPoint x="2780" y="935" as="targetPoint" />
          </mxGeometry>
        </mxCell>
        <mxCell id="OGvGZ4oasRyPuzzbkTMv-121" value="" style="endArrow=none;dashed=1;html=1;dashPattern=1 3;strokeWidth=2;rounded=0;entryX=0.5;entryY=1;entryDx=0;entryDy=0;" parent="1" target="OGvGZ4oasRyPuzzbkTMv-105" edge="1">
          <mxGeometry width="50" height="50" relative="1" as="geometry">
            <mxPoint x="3000" y="1070" as="sourcePoint" />
            <mxPoint x="2130" y="410" as="targetPoint" />
          </mxGeometry>
        </mxCell>
        <mxCell id="OGvGZ4oasRyPuzzbkTMv-122" value="" style="endArrow=none;dashed=1;html=1;dashPattern=1 3;strokeWidth=2;rounded=0;" parent="1" edge="1">
          <mxGeometry width="50" height="50" relative="1" as="geometry">
            <mxPoint x="-440" y="1080" as="sourcePoint" />
            <mxPoint x="3000" y="1080" as="targetPoint" />
          </mxGeometry>
        </mxCell>
        <mxCell id="OGvGZ4oasRyPuzzbkTMv-123" value="" style="endArrow=none;dashed=1;html=1;dashPattern=1 3;strokeWidth=2;rounded=0;" parent="1" edge="1">
          <mxGeometry width="50" height="50" relative="1" as="geometry">
            <mxPoint x="-440" y="320" as="sourcePoint" />
            <mxPoint x="-440" y="1080" as="targetPoint" />
          </mxGeometry>
        </mxCell>
        <mxCell id="OGvGZ4oasRyPuzzbkTMv-124" value="" style="endArrow=none;dashed=1;html=1;dashPattern=1 3;strokeWidth=2;rounded=0;entryX=0;entryY=0;entryDx=0;entryDy=0;" parent="1" target="OGvGZ4oasRyPuzzbkTMv-3" edge="1">
          <mxGeometry width="50" height="50" relative="1" as="geometry">
            <mxPoint x="-440" y="318" as="sourcePoint" />
            <mxPoint x="-270" y="355" as="targetPoint" />
          </mxGeometry>
        </mxCell>
        <mxCell id="OGvGZ4oasRyPuzzbkTMv-125" value="Vendéglátás" style="ellipse;whiteSpace=wrap;html=1;fontSize=27;" parent="1" vertex="1">
          <mxGeometry x="1675" y="-380" width="160" height="80" as="geometry" />
        </mxCell>
        <mxCell id="OGvGZ4oasRyPuzzbkTMv-126" value="" style="group" parent="1" vertex="1" connectable="0">
          <mxGeometry x="3100" y="290" width="120" height="110" as="geometry" />
        </mxCell>
        <mxCell id="OGvGZ4oasRyPuzzbkTMv-127" value="&lt;span style=&quot;font-size: 27px;&quot;&gt;VKód&lt;/span&gt;" style="rhombus;whiteSpace=wrap;html=1;fontSize=27;" parent="OGvGZ4oasRyPuzzbkTMv-126" vertex="1">
          <mxGeometry width="120" height="110" as="geometry" />
        </mxCell>
        <mxCell id="OGvGZ4oasRyPuzzbkTMv-128" value="" style="endArrow=none;dashed=1;html=1;dashPattern=1 3;strokeWidth=2;rounded=0;" parent="OGvGZ4oasRyPuzzbkTMv-126" edge="1">
          <mxGeometry width="50" height="50" relative="1" as="geometry">
            <mxPoint x="30" y="70" as="sourcePoint" />
            <mxPoint x="100" y="70" as="targetPoint" />
          </mxGeometry>
        </mxCell>
        <mxCell id="OGvGZ4oasRyPuzzbkTMv-130" value="Életkor" style="ellipse;whiteSpace=wrap;html=1;fontSize=27;strokeColor=default;" parent="1" vertex="1">
          <mxGeometry x="3450" y="500" width="160" height="80" as="geometry" />
        </mxCell>
        <mxCell id="OGvGZ4oasRyPuzzbkTMv-131" value="Név" style="ellipse;whiteSpace=wrap;html=1;fontSize=27;strokeColor=default;" parent="1" vertex="1">
          <mxGeometry x="3210" y="500" width="160" height="80" as="geometry" />
        </mxCell>
        <mxCell id="OGvGZ4oasRyPuzzbkTMv-132" value="Cím" style="ellipse;whiteSpace=wrap;html=1;fontSize=27;strokeColor=default;" parent="1" vertex="1">
          <mxGeometry x="3720" y="500" width="160" height="80" as="geometry" />
        </mxCell>
        <mxCell id="OGvGZ4oasRyPuzzbkTMv-133" value="Utca" style="ellipse;whiteSpace=wrap;html=1;fontSize=27;strokeColor=default;" parent="1" vertex="1">
          <mxGeometry x="3720" y="690" width="160" height="80" as="geometry" />
        </mxCell>
        <mxCell id="OGvGZ4oasRyPuzzbkTMv-134" value="Város" style="ellipse;whiteSpace=wrap;html=1;fontSize=27;strokeColor=default;" parent="1" vertex="1">
          <mxGeometry x="3540" y="690" width="160" height="80" as="geometry" />
        </mxCell>
        <mxCell id="OGvGZ4oasRyPuzzbkTMv-135" value="Házszám" style="ellipse;whiteSpace=wrap;html=1;fontSize=27;strokeColor=default;" parent="1" vertex="1">
          <mxGeometry x="3900" y="690" width="160" height="80" as="geometry" />
        </mxCell>
        <mxCell id="OGvGZ4oasRyPuzzbkTMv-136" value="" style="endArrow=none;html=1;rounded=0;entryX=0.5;entryY=0;entryDx=0;entryDy=0;exitX=0;exitY=0.5;exitDx=0;exitDy=0;" parent="1" source="OGvGZ4oasRyPuzzbkTMv-35" target="OGvGZ4oasRyPuzzbkTMv-127" edge="1">
          <mxGeometry width="50" height="50" relative="1" as="geometry">
            <mxPoint x="3010" y="300" as="sourcePoint" />
            <mxPoint x="2710" y="250" as="targetPoint" />
          </mxGeometry>
        </mxCell>
        <mxCell id="OGvGZ4oasRyPuzzbkTMv-137" value="" style="endArrow=none;html=1;rounded=0;entryX=0.5;entryY=0;entryDx=0;entryDy=0;exitX=0.5;exitY=1;exitDx=0;exitDy=0;" parent="1" source="OGvGZ4oasRyPuzzbkTMv-35" target="OGvGZ4oasRyPuzzbkTMv-130" edge="1">
          <mxGeometry width="50" height="50" relative="1" as="geometry">
            <mxPoint x="2630" y="290" as="sourcePoint" />
            <mxPoint x="2850" y="500" as="targetPoint" />
          </mxGeometry>
        </mxCell>
        <mxCell id="OGvGZ4oasRyPuzzbkTMv-138" value="" style="endArrow=none;html=1;rounded=0;entryX=0.5;entryY=0;entryDx=0;entryDy=0;exitX=0.5;exitY=1;exitDx=0;exitDy=0;" parent="1" source="OGvGZ4oasRyPuzzbkTMv-35" target="OGvGZ4oasRyPuzzbkTMv-131" edge="1">
          <mxGeometry width="50" height="50" relative="1" as="geometry">
            <mxPoint x="3540" y="300" as="sourcePoint" />
            <mxPoint x="3540" y="510" as="targetPoint" />
          </mxGeometry>
        </mxCell>
        <mxCell id="OGvGZ4oasRyPuzzbkTMv-139" value="" style="endArrow=none;html=1;rounded=0;entryX=0.5;entryY=0;entryDx=0;entryDy=0;exitX=0.5;exitY=1;exitDx=0;exitDy=0;" parent="1" source="OGvGZ4oasRyPuzzbkTMv-35" target="OGvGZ4oasRyPuzzbkTMv-132" edge="1">
          <mxGeometry width="50" height="50" relative="1" as="geometry">
            <mxPoint x="3540" y="300" as="sourcePoint" />
            <mxPoint x="3320" y="510" as="targetPoint" />
          </mxGeometry>
        </mxCell>
        <mxCell id="OGvGZ4oasRyPuzzbkTMv-140" value="" style="endArrow=none;html=1;rounded=0;entryX=0.5;entryY=1;entryDx=0;entryDy=0;exitX=0.5;exitY=0;exitDx=0;exitDy=0;" parent="1" source="OGvGZ4oasRyPuzzbkTMv-133" target="OGvGZ4oasRyPuzzbkTMv-132" edge="1">
          <mxGeometry width="50" height="50" relative="1" as="geometry">
            <mxPoint x="3600" y="300" as="sourcePoint" />
            <mxPoint x="3810" y="510" as="targetPoint" />
          </mxGeometry>
        </mxCell>
        <mxCell id="OGvGZ4oasRyPuzzbkTMv-141" value="" style="endArrow=none;html=1;rounded=0;entryX=0.5;entryY=1;entryDx=0;entryDy=0;exitX=0.5;exitY=0;exitDx=0;exitDy=0;" parent="1" target="OGvGZ4oasRyPuzzbkTMv-132" edge="1">
          <mxGeometry width="50" height="50" relative="1" as="geometry">
            <mxPoint x="3620" y="690" as="sourcePoint" />
            <mxPoint x="3810" y="590" as="targetPoint" />
          </mxGeometry>
        </mxCell>
        <mxCell id="OGvGZ4oasRyPuzzbkTMv-142" value="" style="endArrow=none;html=1;rounded=0;entryX=0.5;entryY=1;entryDx=0;entryDy=0;exitX=0.5;exitY=0;exitDx=0;exitDy=0;" parent="1" source="OGvGZ4oasRyPuzzbkTMv-135" target="OGvGZ4oasRyPuzzbkTMv-132" edge="1">
          <mxGeometry width="50" height="50" relative="1" as="geometry">
            <mxPoint x="3630" y="700" as="sourcePoint" />
            <mxPoint x="3810" y="590" as="targetPoint" />
          </mxGeometry>
        </mxCell>
        <mxCell id="OGvGZ4oasRyPuzzbkTMv-143" value="&lt;span style=&quot;color: rgba(0, 0, 0, 0); font-family: monospace; font-size: 0px; text-align: start; text-wrap: nowrap;&quot;&gt;%3CmxGraphModel%3E%3Croot%3E%3CmxCell%20id%3D%220%22%2F%3E%3CmxCell%20id%3D%221%22%20parent%3D%220%22%2F%3E%3CmxCell%20id%3D%222%22%20value%3D%22%22%20style%3D%22rounded%3D0%3BwhiteSpace%3Dwrap%3Bhtml%3D1%3Bdirection%3Dsouth%3B%22%20vertex%3D%221%22%20parent%3D%221%22%3E%3CmxGeometry%20x%3D%22-100%22%20y%3D%22600%22%20width%3D%2260%22%20height%3D%2280%22%20as%3D%22geometry%22%2F%3E%3C%2FmxCell%3E%3C%2Froot%3E%3C%2FmxGraphModel%3E&lt;/span&gt;" style="rounded=0;whiteSpace=wrap;html=1;direction=south;" parent="1" vertex="1">
          <mxGeometry x="3265" y="610" width="50" height="80" as="geometry" />
        </mxCell>
        <mxCell id="OGvGZ4oasRyPuzzbkTMv-144" value="&lt;span style=&quot;color: rgba(0, 0, 0, 0); font-family: monospace; font-size: 0px; text-align: start; text-wrap: nowrap;&quot;&gt;%3CmxGraphModel%3E%3Croot%3E%3CmxCell%20id%3D%220%22%2F%3E%3CmxCell%20id%3D%221%22%20parent%3D%220%22%2F%3E%3CmxCell%20id%3D%222%22%20value%3D%22%22%20style%3D%22rounded%3D0%3BwhiteSpace%3Dwrap%3Bhtml%3D1%3Bdirection%3Dsouth%3B%22%20vertex%3D%221%22%20parent%3D%221%22%3E%3CmxGeometry%20x%3D%22-100%22%20y%3D%22600%22%20width%3D%2260%22%20height%3D%2280%22%20as%3D%22geometry%22%2F%3E%3C%2FmxCell%3E%3C%2Froot%3E%3C%2FmxGraphModel%3E&lt;/span&gt;" style="rounded=0;whiteSpace=wrap;html=1;direction=south;" parent="1" vertex="1">
          <mxGeometry x="3505" y="610" width="50" height="80" as="geometry" />
        </mxCell>
        <mxCell id="OGvGZ4oasRyPuzzbkTMv-145" value="&lt;span style=&quot;color: rgba(0, 0, 0, 0); font-family: monospace; font-size: 0px; text-align: start; text-wrap: nowrap;&quot;&gt;%3CmxGraphModel%3E%3Croot%3E%3CmxCell%20id%3D%220%22%2F%3E%3CmxCell%20id%3D%221%22%20parent%3D%220%22%2F%3E%3CmxCell%20id%3D%222%22%20value%3D%22%22%20style%3D%22rounded%3D0%3BwhiteSpace%3Dwrap%3Bhtml%3D1%3Bdirection%3Dsouth%3B%22%20vertex%3D%221%22%20parent%3D%221%22%3E%3CmxGeometry%20x%3D%22-100%22%20y%3D%22600%22%20width%3D%2260%22%20height%3D%2280%22%20as%3D%22geometry%22%2F%3E%3C%2FmxCell%3E%3C%2Froot%3E%3C%2FmxGraphModel%3E&lt;/span&gt;" style="rounded=0;whiteSpace=wrap;html=1;direction=south;" parent="1" vertex="1">
          <mxGeometry x="3595" y="800" width="50" height="80" as="geometry" />
        </mxCell>
        <mxCell id="OGvGZ4oasRyPuzzbkTMv-146" value="&lt;span style=&quot;color: rgba(0, 0, 0, 0); font-family: monospace; font-size: 0px; text-align: start; text-wrap: nowrap;&quot;&gt;%3CmxGraphModel%3E%3Croot%3E%3CmxCell%20id%3D%220%22%2F%3E%3CmxCell%20id%3D%221%22%20parent%3D%220%22%2F%3E%3CmxCell%20id%3D%222%22%20value%3D%22%22%20style%3D%22rounded%3D0%3BwhiteSpace%3Dwrap%3Bhtml%3D1%3Bdirection%3Dsouth%3B%22%20vertex%3D%221%22%20parent%3D%221%22%3E%3CmxGeometry%20x%3D%22-100%22%20y%3D%22600%22%20width%3D%2260%22%20height%3D%2280%22%20as%3D%22geometry%22%2F%3E%3C%2FmxCell%3E%3C%2Froot%3E%3C%2FmxGraphModel%3E&lt;/span&gt;" style="rounded=0;whiteSpace=wrap;html=1;direction=south;" parent="1" vertex="1">
          <mxGeometry x="3775" y="800" width="50" height="80" as="geometry" />
        </mxCell>
        <mxCell id="OGvGZ4oasRyPuzzbkTMv-147" value="&lt;span style=&quot;color: rgba(0, 0, 0, 0); font-family: monospace; font-size: 0px; text-align: start; text-wrap: nowrap;&quot;&gt;%3CmxGraphModel%3E%3Croot%3E%3CmxCell%20id%3D%220%22%2F%3E%3CmxCell%20id%3D%221%22%20parent%3D%220%22%2F%3E%3CmxCell%20id%3D%222%22%20value%3D%22%22%20style%3D%22rounded%3D0%3BwhiteSpace%3Dwrap%3Bhtml%3D1%3Bdirection%3Dsouth%3B%22%20vertex%3D%221%22%20parent%3D%221%22%3E%3CmxGeometry%20x%3D%22-100%22%20y%3D%22600%22%20width%3D%2260%22%20height%3D%2280%22%20as%3D%22geometry%22%2F%3E%3C%2FmxCell%3E%3C%2Froot%3E%3C%2FmxGraphModel%3E&lt;/span&gt;" style="rounded=0;whiteSpace=wrap;html=1;direction=south;" parent="1" vertex="1">
          <mxGeometry x="3955" y="800" width="50" height="80" as="geometry" />
        </mxCell>
        <mxCell id="OGvGZ4oasRyPuzzbkTMv-148" value="" style="endArrow=none;html=1;rounded=0;entryX=0;entryY=0.5;entryDx=0;entryDy=0;exitX=0.5;exitY=1;exitDx=0;exitDy=0;" parent="1" source="OGvGZ4oasRyPuzzbkTMv-133" target="OGvGZ4oasRyPuzzbkTMv-146" edge="1">
          <mxGeometry width="50" height="50" relative="1" as="geometry">
            <mxPoint x="3810" y="700" as="sourcePoint" />
            <mxPoint x="3810" y="590" as="targetPoint" />
          </mxGeometry>
        </mxCell>
        <mxCell id="OGvGZ4oasRyPuzzbkTMv-149" value="" style="endArrow=none;html=1;rounded=0;entryX=0.5;entryY=1;entryDx=0;entryDy=0;exitX=0;exitY=0.5;exitDx=0;exitDy=0;" parent="1" source="OGvGZ4oasRyPuzzbkTMv-147" target="OGvGZ4oasRyPuzzbkTMv-135" edge="1">
          <mxGeometry width="50" height="50" relative="1" as="geometry">
            <mxPoint x="3810" y="700" as="sourcePoint" />
            <mxPoint x="3810" y="590" as="targetPoint" />
          </mxGeometry>
        </mxCell>
        <mxCell id="OGvGZ4oasRyPuzzbkTMv-150" value="" style="endArrow=none;html=1;rounded=0;entryX=0.5;entryY=1;entryDx=0;entryDy=0;exitX=0;exitY=0.5;exitDx=0;exitDy=0;" parent="1" source="OGvGZ4oasRyPuzzbkTMv-145" target="OGvGZ4oasRyPuzzbkTMv-134" edge="1">
          <mxGeometry width="50" height="50" relative="1" as="geometry">
            <mxPoint x="3810" y="700" as="sourcePoint" />
            <mxPoint x="3810" y="590" as="targetPoint" />
          </mxGeometry>
        </mxCell>
        <mxCell id="OGvGZ4oasRyPuzzbkTMv-152" value="" style="endArrow=none;html=1;rounded=0;entryX=0.5;entryY=1;entryDx=0;entryDy=0;exitX=0;exitY=0.5;exitDx=0;exitDy=0;" parent="1" source="OGvGZ4oasRyPuzzbkTMv-144" target="OGvGZ4oasRyPuzzbkTMv-130" edge="1">
          <mxGeometry width="50" height="50" relative="1" as="geometry">
            <mxPoint x="3630" y="700" as="sourcePoint" />
            <mxPoint x="3810" y="590" as="targetPoint" />
          </mxGeometry>
        </mxCell>
        <mxCell id="OGvGZ4oasRyPuzzbkTMv-153" value="" style="endArrow=none;html=1;rounded=0;entryX=0.5;entryY=1;entryDx=0;entryDy=0;exitX=0;exitY=0.5;exitDx=0;exitDy=0;" parent="1" source="OGvGZ4oasRyPuzzbkTMv-143" target="OGvGZ4oasRyPuzzbkTMv-131" edge="1">
          <mxGeometry width="50" height="50" relative="1" as="geometry">
            <mxPoint x="3630" y="700" as="sourcePoint" />
            <mxPoint x="3810" y="590" as="targetPoint" />
          </mxGeometry>
        </mxCell>
        <mxCell id="OGvGZ4oasRyPuzzbkTMv-155" value="Összeg" style="ellipse;whiteSpace=wrap;html=1;fontSize=27;strokeColor=default;" parent="1" vertex="1">
          <mxGeometry x="4220" y="510" width="160" height="80" as="geometry" />
        </mxCell>
        <mxCell id="OGvGZ4oasRyPuzzbkTMv-156" value="Étel" style="ellipse;whiteSpace=wrap;html=1;fontSize=27;strokeColor=default;" parent="1" vertex="1">
          <mxGeometry x="4490" y="510" width="160" height="80" as="geometry" />
        </mxCell>
        <mxCell id="OGvGZ4oasRyPuzzbkTMv-157" value="" style="endArrow=none;html=1;rounded=0;entryX=0.5;entryY=1;entryDx=0;entryDy=0;exitX=0.5;exitY=0;exitDx=0;exitDy=0;" parent="1" source="OGvGZ4oasRyPuzzbkTMv-155" target="OGvGZ4oasRyPuzzbkTMv-72" edge="1">
          <mxGeometry width="50" height="50" relative="1" as="geometry">
            <mxPoint x="3540" y="290" as="sourcePoint" />
            <mxPoint x="3810" y="510" as="targetPoint" />
          </mxGeometry>
        </mxCell>
        <mxCell id="OGvGZ4oasRyPuzzbkTMv-159" value="" style="endArrow=none;html=1;rounded=0;entryX=0.5;entryY=1;entryDx=0;entryDy=0;exitX=0.5;exitY=0;exitDx=0;exitDy=0;" parent="1" source="OGvGZ4oasRyPuzzbkTMv-156" target="OGvGZ4oasRyPuzzbkTMv-72" edge="1">
          <mxGeometry width="50" height="50" relative="1" as="geometry">
            <mxPoint x="4310" y="520" as="sourcePoint" />
            <mxPoint x="4440" y="300" as="targetPoint" />
          </mxGeometry>
        </mxCell>
        <mxCell id="OGvGZ4oasRyPuzzbkTMv-160" value="" style="endArrow=none;html=1;rounded=0;entryX=0.5;entryY=0;entryDx=0;entryDy=0;exitX=0.5;exitY=1;exitDx=0;exitDy=0;" parent="1" source="OGvGZ4oasRyPuzzbkTMv-125" target="OGvGZ4oasRyPuzzbkTMv-72" edge="1">
          <mxGeometry width="50" height="50" relative="1" as="geometry">
            <mxPoint x="2260" y="180" as="sourcePoint" />
            <mxPoint x="2310" y="130" as="targetPoint" />
          </mxGeometry>
        </mxCell>
        <mxCell id="OGvGZ4oasRyPuzzbkTMv-161" value="" style="endArrow=none;html=1;rounded=0;entryX=0.5;entryY=0;entryDx=0;entryDy=0;exitX=0.5;exitY=1;exitDx=0;exitDy=0;" parent="1" source="OGvGZ4oasRyPuzzbkTMv-125" target="OGvGZ4oasRyPuzzbkTMv-35" edge="1">
          <mxGeometry width="50" height="50" relative="1" as="geometry">
            <mxPoint x="1765" y="-290" as="sourcePoint" />
            <mxPoint x="4440" y="220" as="targetPoint" />
          </mxGeometry>
        </mxCell>
        <mxCell id="OGvGZ4oasRyPuzzbkTMv-162" value="" style="endArrow=none;html=1;rounded=0;entryX=0.5;entryY=1;entryDx=0;entryDy=0;exitX=0.5;exitY=0;exitDx=0;exitDy=0;" parent="1" source="OGvGZ4oasRyPuzzbkTMv-34" target="OGvGZ4oasRyPuzzbkTMv-125" edge="1">
          <mxGeometry width="50" height="50" relative="1" as="geometry">
            <mxPoint x="1870" y="220" as="sourcePoint" />
            <mxPoint x="1920" y="170" as="targetPoint" />
          </mxGeometry>
        </mxCell>
        <mxCell id="OGvGZ4oasRyPuzzbkTMv-163" value="" style="endArrow=none;html=1;rounded=0;entryX=0.5;entryY=1;entryDx=0;entryDy=0;exitX=0.5;exitY=0;exitDx=0;exitDy=0;" parent="1" source="OGvGZ4oasRyPuzzbkTMv-33" target="OGvGZ4oasRyPuzzbkTMv-125" edge="1">
          <mxGeometry width="50" height="50" relative="1" as="geometry">
            <mxPoint x="1870" y="220" as="sourcePoint" />
            <mxPoint x="1920" y="170" as="targetPoint" />
          </mxGeometry>
        </mxCell>
        <mxCell id="OGvGZ4oasRyPuzzbkTMv-164" value="" style="endArrow=none;html=1;rounded=0;entryX=0.5;entryY=1;entryDx=0;entryDy=0;exitX=0.5;exitY=0;exitDx=0;exitDy=0;" parent="1" source="OGvGZ4oasRyPuzzbkTMv-32" target="OGvGZ4oasRyPuzzbkTMv-125" edge="1">
          <mxGeometry width="50" height="50" relative="1" as="geometry">
            <mxPoint x="1840" y="220" as="sourcePoint" />
            <mxPoint x="1890" y="170" as="targetPoint" />
          </mxGeometry>
        </mxCell>
        <mxCell id="OGvGZ4oasRyPuzzbkTMv-165" value="" style="endArrow=none;html=1;rounded=0;entryX=0.5;entryY=1;entryDx=0;entryDy=0;exitX=0.5;exitY=0;exitDx=0;exitDy=0;" parent="1" source="OGvGZ4oasRyPuzzbkTMv-27" target="OGvGZ4oasRyPuzzbkTMv-125" edge="1">
          <mxGeometry width="50" height="50" relative="1" as="geometry">
            <mxPoint x="1450" y="240" as="sourcePoint" />
            <mxPoint x="1500" y="190" as="targetPoint" />
          </mxGeometry>
        </mxCell>
        <mxCell id="OGvGZ4oasRyPuzzbkTMv-166" value="" style="group" parent="1" vertex="1" connectable="0">
          <mxGeometry x="4060" y="290" width="120" height="110" as="geometry" />
        </mxCell>
        <mxCell id="OGvGZ4oasRyPuzzbkTMv-167" value="&lt;span style=&quot;font-size: 27px;&quot;&gt;R_V&lt;/span&gt;" style="rhombus;whiteSpace=wrap;html=1;fontSize=27;" parent="OGvGZ4oasRyPuzzbkTMv-166" vertex="1">
          <mxGeometry width="120" height="110" as="geometry" />
        </mxCell>
        <mxCell id="OGvGZ4oasRyPuzzbkTMv-168" value="" style="endArrow=none;dashed=1;html=1;dashPattern=1 3;strokeWidth=2;rounded=0;" parent="OGvGZ4oasRyPuzzbkTMv-166" edge="1">
          <mxGeometry width="50" height="50" relative="1" as="geometry">
            <mxPoint x="30" y="70" as="sourcePoint" />
            <mxPoint x="100" y="70" as="targetPoint" />
          </mxGeometry>
        </mxCell>
        <mxCell id="OGvGZ4oasRyPuzzbkTMv-169" value="" style="group" parent="1" vertex="1" connectable="0">
          <mxGeometry x="4740" y="290" width="120" height="110" as="geometry" />
        </mxCell>
        <mxCell id="OGvGZ4oasRyPuzzbkTMv-170" value="&lt;span style=&quot;font-size: 27px;&quot;&gt;R_E&lt;/span&gt;" style="rhombus;whiteSpace=wrap;html=1;fontSize=27;" parent="OGvGZ4oasRyPuzzbkTMv-169" vertex="1">
          <mxGeometry width="120" height="110" as="geometry" />
        </mxCell>
        <mxCell id="OGvGZ4oasRyPuzzbkTMv-171" value="" style="endArrow=none;dashed=1;html=1;dashPattern=1 3;strokeWidth=2;rounded=0;" parent="OGvGZ4oasRyPuzzbkTMv-169" edge="1">
          <mxGeometry width="50" height="50" relative="1" as="geometry">
            <mxPoint x="30" y="70" as="sourcePoint" />
            <mxPoint x="100" y="70" as="targetPoint" />
          </mxGeometry>
        </mxCell>
        <mxCell id="OGvGZ4oasRyPuzzbkTMv-173" value="" style="endArrow=none;html=1;rounded=0;entryX=0;entryY=0.5;entryDx=0;entryDy=0;exitX=0.5;exitY=0;exitDx=0;exitDy=0;" parent="1" source="OGvGZ4oasRyPuzzbkTMv-167" target="OGvGZ4oasRyPuzzbkTMv-72" edge="1">
          <mxGeometry width="50" height="50" relative="1" as="geometry">
            <mxPoint x="4100" y="610" as="sourcePoint" />
            <mxPoint x="4150" y="560" as="targetPoint" />
          </mxGeometry>
        </mxCell>
        <mxCell id="OGvGZ4oasRyPuzzbkTMv-174" value="" style="endArrow=none;html=1;rounded=0;entryX=1;entryY=0.5;entryDx=0;entryDy=0;exitX=0.5;exitY=0;exitDx=0;exitDy=0;" parent="1" source="OGvGZ4oasRyPuzzbkTMv-170" target="OGvGZ4oasRyPuzzbkTMv-72" edge="1">
          <mxGeometry width="50" height="50" relative="1" as="geometry">
            <mxPoint x="4130" y="300" as="sourcePoint" />
            <mxPoint x="4360" y="260" as="targetPoint" />
          </mxGeometry>
        </mxCell>
        <mxCell id="OGvGZ4oasRyPuzzbkTMv-177" value="" style="endArrow=classic;html=1;rounded=0;dashed=1;entryX=0.5;entryY=1;entryDx=0;entryDy=0;" parent="1" target="OGvGZ4oasRyPuzzbkTMv-127" edge="1">
          <mxGeometry width="50" height="50" relative="1" as="geometry">
            <mxPoint x="3160" y="920" as="sourcePoint" />
            <mxPoint x="4150" y="560" as="targetPoint" />
          </mxGeometry>
        </mxCell>
        <mxCell id="OGvGZ4oasRyPuzzbkTMv-178" value="" style="endArrow=none;html=1;rounded=0;dashed=1;entryX=0.5;entryY=1;entryDx=0;entryDy=0;" parent="1" target="OGvGZ4oasRyPuzzbkTMv-167" edge="1">
          <mxGeometry width="50" height="50" relative="1" as="geometry">
            <mxPoint x="4120" y="920" as="sourcePoint" />
            <mxPoint x="4150" y="560" as="targetPoint" />
          </mxGeometry>
        </mxCell>
        <mxCell id="OGvGZ4oasRyPuzzbkTMv-180" value="" style="endArrow=none;html=1;rounded=0;dashed=1;" parent="1" edge="1">
          <mxGeometry width="50" height="50" relative="1" as="geometry">
            <mxPoint x="3160" y="920" as="sourcePoint" />
            <mxPoint x="4120" y="920" as="targetPoint" />
          </mxGeometry>
        </mxCell>
        <mxCell id="OGvGZ4oasRyPuzzbkTMv-181" value="" style="endArrow=none;html=1;rounded=0;dashed=1;entryX=0.5;entryY=1;entryDx=0;entryDy=0;" parent="1" edge="1">
          <mxGeometry width="50" height="50" relative="1" as="geometry">
            <mxPoint x="4799" y="1120" as="sourcePoint" />
            <mxPoint x="4799.17" y="400" as="targetPoint" />
          </mxGeometry>
        </mxCell>
        <mxCell id="GDwyDeZzjz4_j884ZueU-1" value="" style="endArrow=none;dashed=1;html=1;dashPattern=1 3;strokeWidth=2;rounded=0;" edge="1" parent="1">
          <mxGeometry width="50" height="50" relative="1" as="geometry">
            <mxPoint x="-480" y="1120" as="sourcePoint" />
            <mxPoint x="4800" y="1120" as="targetPoint" />
          </mxGeometry>
        </mxCell>
        <mxCell id="GDwyDeZzjz4_j884ZueU-2" value="" style="endArrow=none;dashed=1;html=1;dashPattern=1 3;strokeWidth=2;rounded=0;" edge="1" parent="1">
          <mxGeometry width="50" height="50" relative="1" as="geometry">
            <mxPoint x="-480" y="280" as="sourcePoint" />
            <mxPoint x="-480" y="1120" as="targetPoint" />
          </mxGeometry>
        </mxCell>
        <mxCell id="GDwyDeZzjz4_j884ZueU-3" value="" style="endArrow=none;dashed=1;html=1;dashPattern=1 3;strokeWidth=2;rounded=0;entryX=0;entryY=0;entryDx=0;entryDy=0;" edge="1" parent="1">
          <mxGeometry width="50" height="50" relative="1" as="geometry">
            <mxPoint x="-480" y="288" as="sourcePoint" />
            <mxPoint x="-220" y="288.46" as="targetPoint" />
          </mxGeometry>
        </mxCell>
      </root>
    </mxGraphModel>
  </diagram>
</mxfile>
